{"title":"Batman Begins 2005 720p BluRay QEBSx AAC20 MP4-FASM","uid":9526335,"size":2202370143,"categoryP":"video","categoryS":"hd___movies","magnet":"?xt=urn:btih:b1f001da114e3021cb5b53e7a6324ca9469be850&amp;dn=Batman+Begins+2005+720p+BluRay+QEBSx+AAC20+MP4-FASM&amp;tr=udp%3A%2F%2Ftracker.openbittorrent.com%3A80&amp;tr=udp%3A%2F%2Fopen.demonii.com%3A1337&amp;tr=udp%3A%2F%2Ftracker.coppersurfer.tk%3A6969&amp;tr=udp%3A%2F%2Fexodus.desync.com%3A6969","seeders":1,"leechers":0,"uploader":"210GJI","files":9,"time":1390757052,"description":" &lt;a href=&quot;http://www.imdb.com/title/tt0372784/?ref_=ttpl_pl_tt&quot; rel=&quot;nofollow&quot; target=&quot;_NEW&quot;&gt;http://www.imdb.com/title/tt0372784/?ref_=ttpl_pl_tt&lt;/a&gt;\n\nPlot: After training with his mentor, Batman begins his war on crime to free the crime-ridden Gotham City from corruption that the Scarecrow and the League of Shadows have cast upon it.\n\nGeneral\nComplete name                  : Batman Begins 2005 720p BluRay QEBSx AAC20 MP4 FASM.mp4\nFormat                         : MPEG-4\nFormat profile                 : Base Media\nCodec ID                       : isom\nFile size                      : 2.04 GiB\nDuration                       : 2h 20mn\nOverall bit rate mode          : Variable\nOverall bit rate               : 2 084 Kbps\nEncoded date                   : UTC 2013-04-07 21:07:59\nTagged date                    : UTC 2013-04-07 21:07:59\n\nVideo\nID                             : 1\nFormat                         : AVC\nFormat/Info                    : Advanced Video Codec\nFormat profile                 : &lt;a class=&quot;__cf_email__&quot; href=&quot;/cdn-cgi/l/email-protection&quot; data-cfemail=&quot;357d5c525d7579061b04&quot;&gt;[email&amp;#160;protected]&lt;/a&gt;&lt;script cf-hash='f9e31' type=&quot;text/javascript&quot;&gt;\n/* &lt;![CDATA[ */!function(){try{var t=&quot;currentScript&quot;in document?document.currentScript:function(){for(var t=document.getElementsByTagName(&quot;script&quot;),e=t.length;e--;)if(t[e].getAttribute(&quot;cf-hash&quot;))return t[e]}();if(t&amp;&amp;t.previousSibling){var e,r,n,i,c=t.previousSibling,a=c.getAttribute(&quot;data-cfemail&quot;);if(a){for(e=&quot;&quot;,r=parseInt(a.substr(0,2),16),n=2;a.length-n;n+=2)i=parseInt(a.substr(n,2),16)^r,e+=String.fromCharCode(i);e=document.createTextNode(e),c.parentNode.replaceChild(e,c)}}}catch(u){}}();/* ]]&gt; */&lt;/script&gt;\nFormat settings, CABAC         : Yes\nFormat settings, ReFrames      : 5 frames\nCodec ID                       : avc1\nCodec ID/Info                  : Advanced Video Coding\nDuration                       : 2h 20mn\nBit rate                       : 1 942 Kbps\nMaximum bit rate               : 7 782 Kbps\nWidth                          : 1 280 pixels\nHeight                         : 528 pixels\nDisplay aspect ratio           : 2.40:1\nFrame rate mode                : Constant\nFrame rate                     : 23.976 fps\nColor space                    : YUV\nChroma subsampling             : 4:2:0\nBit depth                      : 8 bits\nScan type                      : Progressive\nBits/(Pixel*Frame)             : 0.120\nStream size                    : 1.90 GiB (93%)\nTitle                          : 1280x528.264#trackID=1:fps=23.976 - Imported with GPAC 0.5.0-rev4065\nWriting library                : FASM Quality Enhancer Bitrate Squeezer X.0 (c)2013 Fachman\nEncoded date                   : UTC 2013-04-07 21:07:59\nTagged date                    : UTC 2013-04-07 21:11:20\nColor primaries                : BT.709\nTransfer characteristics       : BT.709\nMatrix coefficients            : BT.709\n\nAudio\nID                             : 2\nFormat                         : AAC\nFormat/Info                    : Advanced Audio Codec\nFormat profile                 : LC\nCodec ID                       : 40\nDuration                       : 2h 20mn\nBit rate mode                  : Variable\nBit rate                       : 138 Kbps\nMaximum bit rate               : 202 Kbps\nChannel(s)                     : 2 channels\nChannel positions              : Front: L R\nSampling rate                  : 48.0 KHz\nCompression mode               : Lossy\nStream size                    : 138 MiB (7%)\nLanguage                       : English\nEncoded date                   : UTC 2013-04-07 21:11:16\nTagged date                    : UTC 2013-04-07 21:11:20\n\nMenu\n00:00:00.000                   : You're Practice\n00:03:39.219                   : More Than Just a Man\n00:07:31.117                   : What Do You Fear?\n00:11:34.026                   : Tragedy\n00:16:15.641                   : The Will to Act\n00:19:44.349                   : This House\n00:24:19.291                   : Not One of Your Good People\n00:28:24.703                   : Carmine Falcone\n00:31:25.383                   : Embrace Your Fear\n00:35:53.818                   : Gotham Must Be Destroyed\n00:38:24.635                   : Monastery Mayhem\n00:41:14.638                   : Incorruptible Symbol\n00:43:08.252                   : Nest of Bats\n00:46:57.981                   : Welcome Home\n00:49:43.981                   : Applied Sciences\n00:53:26.203                   : Gordon's Visitor\n00:55:55.018                   : Does It Come in Black?\n00:58:02.145                   : Secrets of Scary People\n01:03:31.808                   : Rattle the Cages\n01:05:53.115                   : Missing Weapon\n01:08:38.781                   : More Inside\n01:11:25.781                   : Crane's Mask\n01:13:19.561                   : Do I Look Like a Cop?\n01:16:16.238                   : Lighten Up\n01:19:50.285                   : Work to Do\n01:23:54.362                   : Arkham's Basement Secrets\n01:29:02.670                   : Winged Backup\n01:32:36.717                   : Tumbler on the Roof\n01:37:49.029                   : The Monster of Yours\n01:40:33.694                   : Dual Identities\n01:45:08.969                   : Purging Fire\n01:49:32.065                   : Inferno Rescue\n01:51:29.182                   : Spread the Word: Panic\n01:54:49.048                   : What Defines Me\n01:58:11.084                   : Catching a Train\n02:01:54.974                   : Not Kill But Not Save\n02:05:01.160                   : New Owner\n02:06:06.892                   : This Is Your Mask\n02:09:18.417                   : Calling Card\n02:10:57.015                   : End Credits\n\n","torrent":{"xt":"urn:btih:b1f001da114e3021cb5b53e7a6324ca9469be850","amp;dn":"Batman+Begins+2005+720p+BluRay+QEBSx+AAC20+MP4-FASM","amp;tr":["udp%3A%2F%2Ftracker.openbittorrent.com%3A80","udp%3A%2F%2Fopen.demonii.com%3A1337","udp%3A%2F%2Ftracker.coppersurfer.tk%3A6969","udp%3A%2F%2Fexodus.desync.com%3A6969"],"infoHash":"b1f001da114e3021cb5b53e7a6324ca9469be850","infoHashBuffer":{"type":"Buffer","data":[177,240,1,218,17,78,48,33,203,91,83,231,166,50,76,169,70,155,232,80]},"announce":[],"urlList":[]}}